<svg width="96" height="96" viewBox="0 0 96 96" fill="none" xmlns="http://www.w3.org/2000/svg">
    <path d="M0 13.913C0 6.22908 6.22908 0 13.913 0H82.087C89.7709 0 96 6.22908 96 13.913V82.087C96 89.7709 89.7709 96 82.087 96H13.913C6.22908 96 0 89.7709 0 82.087V13.913Z" fill="#D9D9D9"/>
    <g filter="url(#filter0_i_12_8)">
        <path d="M27.4108 65.3913H13.913V29.913H27.2738C30.8823 29.913 33.9998 30.6233 36.6263 32.0438C39.2641 33.4528 41.2968 35.4854 42.7242 38.1416C44.1631 40.7863 44.8825 43.9565 44.8825 47.6522C44.8825 51.3478 44.1688 54.5238 42.7414 57.18C41.3139 59.8247 39.2927 61.8573 36.6776 63.2778C34.0626 64.6868 30.9736 65.3913 27.4108 65.3913ZM23.4368 57.2147H27.0682C28.804 57.2147 30.2828 56.9317 31.5047 56.3658C32.7379 55.7999 33.6743 54.824 34.3138 53.4382C34.9647 52.0523 35.2902 50.1236 35.2902 47.6522C35.2902 45.1807 34.959 43.252 34.2967 41.8661C33.6458 40.4803 32.6866 39.5044 31.419 38.9385C30.1629 38.3726 28.6212 38.0897 26.7941 38.0897H23.4368V57.2147Z" fill="#343434"/>
        <path d="M56.1877 65.3913H45.9102L57.4895 29.913H70.5077L82.087 65.3913H71.8095L64.1356 39.6834H63.8616L56.1877 65.3913ZM54.2693 51.394H73.5909V58.6005H54.2693V51.394Z" fill="#343434"/>
    </g>
    <defs>
        <filter id="filter0_i_12_8" x="13.913" y="29.913" width="68.1739" height="39.4783" filterUnits="userSpaceOnUse" color-interpolation-filters="sRGB">
            <feFlood flood-opacity="0" result="BackgroundImageFix"/>
            <feBlend mode="normal" in="SourceGraphic" in2="BackgroundImageFix" result="shape"/>
            <feColorMatrix in="SourceAlpha" type="matrix" values="0 0 0 0 0 0 0 0 0 0 0 0 0 0 0 0 0 0 127 0" result="hardAlpha"/>
            <feOffset dy="4"/>
            <feGaussianBlur stdDeviation="2"/>
            <feComposite in2="hardAlpha" operator="arithmetic" k2="-1" k3="1"/>
            <feColorMatrix type="matrix" values="0 0 0 0 0 0 0 0 0 0 0 0 0 0 0 0 0 0 0.25 0"/>
            <feBlend mode="normal" in2="shape" result="effect1_innerShadow_12_8"/>
        </filter>
    </defs>
</svg>
